<?xml version="1.0" encoding="UTF-8"?>
<svg width="236px" height="31px" viewBox="0 0 236 31" version="1.1" xmlns="http://www.w3.org/2000/svg" xmlns:xlink="http://www.w3.org/1999/xlink">
    <!-- Generator: Sketch 49.3 (51167) - http://www.bohemiancoding.com/sketch -->
    <title>Logo-Horizontal</title>
    <desc></desc>
    <defs></defs>
    <g id="Symbols" stroke="none" stroke-width="1" fill="none" fill-rule="evenodd">
        <g id="Header---Desktop" transform="translate(-165.000000, -28.000000)">
            <g id="Logo-Horizontal" transform="translate(165.000000, 28.075594)">
                <path d="M12.6701927,5.77922667 C10.4315058,5.77922667 8.91101339,6.59297667 8.91101339,8.21944333 C8.91101339,13.7415767 24.6643957,10.6591433 24.622089,21.44766 C24.622089,27.3118267 19.5962575,30.4800267 13.0504432,30.4800267 C8.19332873,30.4800267 3.33621425,28.59626 0.000101943845,25.7282433 L2.66083629,20.20611 C5.70182117,22.9459933 10.0089486,24.7005933 13.1345469,24.7005933 C15.8798946,24.7005933 17.5267974,23.67346 17.5267974,21.8325767 C17.5267974,16.1817933 1.77392484,19.4781267 1.77392484,8.86114333 C1.77392484,3.42477667 6.37719914,-0.000206666667 13.2191603,-0.000206666667 C17.3580803,-0.000206666667 21.4970004,1.28422667 24.4528622,3.25324333 L21.877251,8.86114333 C18.7516527,6.97789333 15.0352898,5.77922667 12.6701927,5.77922667" id="Fill-1" fill="#FEFEFE"></path>
                <path d="M66.6001175,15.7964633 L66.6001175,30.2657133 L60.1384069,30.2657133 L60.1384069,17.7231133 C60.1384069,14.7688133 58.4491974,13.0142133 55.7466661,13.0142133 C52.6210678,13.05658 50.7203248,15.53968 50.7203248,18.8788967 L50.7203248,30.2657133 L44.2586143,30.2657133 L44.2586143,17.7231133 C44.2586143,14.7688133 42.5694048,13.0142133 39.9086704,13.0142133 C36.7412752,13.05658 34.8405322,15.53968 34.8405322,18.8788967 L34.8405322,30.2657133 L28.3370246,30.2657133 L28.3370246,7.23478 L34.8405322,7.23478 L34.8405322,11.2156967 C36.445638,8.39108 39.1063724,7.02088 42.5270981,6.97799667 C46.370381,6.97799667 49.1157287,8.94701333 50.2136639,12.28623 C51.6918497,8.73311333 54.5636078,7.02088 58.4068907,6.97799667 C63.4327222,6.97799667 66.6001175,10.40298 66.6001175,15.7964633" id="Fill-4" fill="#FEFEFE"></path>
                <path d="M84.9826315,22.3892333 L84.9826315,20.3339333 L79.8726963,20.3339333 C77.380679,20.3339333 76.1563335,21.1048 76.1563335,22.9456833 C76.1563335,24.7008 77.5070894,25.8565833 79.7039793,25.8565833 C82.4488173,25.8565833 84.6028907,24.35825 84.9826315,22.3892333 Z M85.0249382,30.2658167 L85.0249382,27.5688167 C83.5044458,29.4954667 81.0552449,30.5654833 77.88734,30.5654833 C73.0307352,30.5654833 70.0743637,27.5688167 70.0743637,23.374 C70.0743637,19.0500167 73.1576553,16.48115 78.7319447,16.4387833 L84.9826315,16.4387833 L84.9826315,16.0104667 C84.9826315,13.5707667 83.3780354,12.1576833 80.2524371,12.1576833 C78.2252838,12.1576833 75.8606963,12.8427833 73.4950894,14.1701 L71.4679361,9.6317 C74.8468648,7.91946667 77.7609296,6.97758333 81.7306229,6.97758333 C87.8125927,6.97758333 91.317422,10.0605333 91.3602384,15.2401167 L91.4020354,30.2658167 L85.0249382,30.2658167 Z" id="Fill-6" fill="#FEFEFE"></path>
                <path d="M126.480454,28.9817967 C124.791244,29.9660467 122.679477,30.56538 120.567711,30.56538 C116.513404,30.56538 113.430622,28.2114467 113.430622,23.4596633 L113.430622,1.92603 L119.892333,1.92603 L119.892333,8.26191333 L126.057896,8.26191333 L126.057896,12.84268 L119.892333,12.84268 L119.892333,22.3462467 C119.892333,24.27238 120.694631,25.0432467 122.088203,25.0003633 C122.932808,25.0003633 123.946639,24.7006967 125.129188,24.1442467 L126.480454,28.9817967 Z" id="Fill-8" fill="#FEFEFE"></path>
                <path d="M141.548773,5.77922667 C139.310086,5.77922667 137.790104,6.59246 137.790104,8.21944333 C137.790104,13.7415767 153.542976,10.6591433 153.50067,21.4471433 C153.50067,27.3118267 148.475348,30.4800267 141.929024,30.4800267 C137.071909,30.4800267 132.214795,28.59626 128.878683,25.7282433 L131.539417,20.20611 C134.580402,22.9459933 138.888039,24.7005933 142.013127,24.7005933 C144.758475,24.7005933 146.405888,23.6729433 146.405888,21.8325767 C146.405888,16.1812767 130.652505,19.4781267 130.652505,8.86114333 C130.652505,3.42426 135.25578,-0.000206666667 142.097741,-0.000206666667 C146.236661,-0.000206666667 150.375581,1.28422667 153.331952,3.25324333 L150.755832,8.86114333 C147.630233,6.97789333 143.91387,5.77922667 141.548773,5.77922667" id="Fill-10" fill="#FEFEFE"></path>
                <path d="M171.068143,22.3890267 L171.068143,20.3342433 L165.958207,20.3342433 C163.46619,20.3342433 162.241844,21.1045933 162.241844,22.9459933 C162.241844,24.7005933 163.5926,25.8563767 165.78949,25.8563767 C168.534328,25.8563767 170.688402,24.35856 171.068143,22.3890267 Z M171.110449,30.2661267 L171.110449,27.56861 C169.589957,29.49526 167.140756,30.5657933 163.972851,30.5657933 C159.115737,30.5657933 156.159875,27.56861 156.159875,23.3737933 C156.159875,19.0503267 159.243166,16.48146 164.817456,16.4385767 L171.068143,16.4385767 L171.068143,16.0107767 C171.068143,13.57056 169.463546,12.1574767 166.337948,12.1574767 C164.310795,12.1574767 161.946207,12.8425767 159.5806,14.1693767 L157.553447,9.63201 C160.932376,7.91977667 163.846441,6.97789333 167.816134,6.97789333 C173.898104,6.97789333 177.402933,10.05981 177.445749,15.23991 L177.487546,30.2661267 L171.110449,30.2661267 Z" id="Fill-13" fill="#FEFEFE"></path>
                <polygon id="Fill-15" fill="#FEFEFE" points="185.777824 7.23436667 191.141599 24.0157 196.463068 7.23436667 202.924778 7.23436667 194.351301 30.2658167 187.678567 30.2658167 179.063292 7.27725"></polygon>
                <path d="M219.973102,16.866635 C219.888489,13.827085 217.945439,11.8580683 214.947271,11.8580683 C212.075513,11.8580683 210.132463,13.827085 209.625802,16.866635 L219.973102,16.866635 Z M226.054562,20.7623017 L209.752213,20.7623017 C210.512714,23.6732017 212.709094,25.3859517 215.622649,25.3859517 C217.776722,25.3859517 219.803876,24.529835 221.366675,22.945735 L224.7874,26.4559683 C222.506917,29.0243183 219.170295,30.5226517 215.074191,30.5226517 C207.809673,30.5226517 203.205889,25.8137517 203.205889,18.8361683 C203.205889,11.7294183 207.97839,7.02051833 214.904964,7.02051833 C222.887167,7.02051833 226.60353,12.371635 226.054562,20.7623017 Z" id="Fill-17" fill="#FEFEFE"></path>
                <path d="M235.709664,26.9055717 C235.709664,28.974305 234.055115,30.651405 232.0142,30.651405 C229.973284,30.651405 228.318735,28.974305 228.318735,26.9055717 C228.318735,24.8368383 229.973284,23.1597383 232.0142,23.1597383 C234.055115,23.1597383 235.709664,24.8368383 235.709664,26.9055717" id="Fill-19" fill="#ED6970"></path>
                <path d="M110.074835,6.97779 L110.074835,13.1850233 C105.428744,12.7572233 102.556986,15.28269 102.556986,19.1783567 L102.556986,30.2660233 L96.0529685,30.2660233 L96.0529685,7.23509 L102.556986,7.23509 L102.556986,11.3870233 C104.119785,8.56137333 106.695906,7.02067333 110.074835,6.97779" id="Fill-22" fill="#FEFEFE"></path>
            </g>
        </g>
    </g>
</svg>